<?xml version="1.0" encoding="UTF-8" standalone="no"?>
<!-- Generator: Gravit.io -->
<svg xmlns="http://www.w3.org/2000/svg" xmlns:xlink="http://www.w3.org/1999/xlink" style="isolation:isolate" viewBox="800 216 320 57.493" width="320" height="57.493"><g id="Group"><path d=" M 1020.5 216 L 1020.5 272.7 L 1005.1 272.7 L 1005.1 249.6 L 987.3 249.6 L 987.3 272.7 L 971.9 272.7 L 971.9 216 L 987.3 216 L 987.3 237 L 1005.1 237 L 1005.1 216 L 1020.5 216 Z  M 1057.4 216 L 1072.7 216 L 1072.7 250.1 L 1072.7 250.1 Q 1072.7 261.3 1066.4 267.4 L 1066.4 267.4 L 1066.4 267.4 Q 1060.1 273.5 1048.2 273.5 L 1048.2 273.5 L 1048.2 273.5 Q 1036.6 273.5 1030.4 267.6 L 1030.4 267.6 L 1030.4 267.6 Q 1024.2 261.6 1024.2 250.5 L 1024.2 250.5 L 1024.2 216 L 1039.6 216 L 1039.6 249.3 L 1039.6 249.3 Q 1039.6 255.3 1041.8 258 L 1041.8 258 L 1041.8 258 Q 1044.1 260.7 1048.4 260.7 L 1048.4 260.7 L 1048.4 260.7 Q 1053.1 260.7 1055.3 258 L 1055.3 258 L 1055.3 258 Q 1057.4 255.3 1057.4 249.2 L 1057.4 249.2 L 1057.4 216 Z  M 1076.3 272.7 L 1076.3 216 L 1096.1 216 L 1096.1 216 Q 1107.7 216 1113.3 219.4 L 1113.3 219.4 L 1113.3 219.4 Q 1118.9 222.9 1118.9 230.1 L 1118.9 230.1 L 1118.9 230.1 Q 1118.9 234.9 1116.4 238.3 L 1116.4 238.3 L 1116.4 238.3 Q 1114 241.6 1110 242.6 L 1110 242.6 L 1110 243 L 1110 243 Q 1115.3 244.4 1117.6 247.7 L 1117.6 247.7 L 1117.6 247.7 Q 1120 250.9 1120 256.1 L 1120 256.1 L 1120 256.1 Q 1120 263.8 1114.2 268.3 L 1114.2 268.3 L 1114.2 268.3 Q 1108.4 272.7 1098.4 272.7 L 1098.4 272.7 L 1076.3 272.7 Z  M 1091.6 227.6 L 1091.6 237.8 L 1096.3 237.8 L 1096.3 237.8 Q 1099.6 237.8 1101.4 236.4 L 1101.4 236.4 L 1101.4 236.4 Q 1103.2 235 1103.2 232.4 L 1103.2 232.4 L 1103.2 232.4 Q 1103.2 227.6 1095.9 227.6 L 1095.9 227.6 L 1091.6 227.6 Z  M 1096.7 249 L 1091.6 249 L 1091.6 260.9 L 1097 260.9 L 1097 260.9 Q 1104.2 260.9 1104.2 254.8 L 1104.2 254.8 L 1104.2 254.8 Q 1104.2 252 1102.3 250.5 L 1102.3 250.5 L 1102.3 250.5 Q 1100.4 249 1096.7 249 L 1096.7 249 Z " fill-rule="evenodd" fill="rgb(36,52,71)"/><path d=" M 925.7 272.7 L 925.7 216 L 902 216 L 892 243.2 L 882.1 216 L 858.3 216 L 858.3 259 L 842.5 216 L 820.9 216 L 800 272.7 L 819.5 272.7 L 821.5 266.1 L 837.2 266.1 L 832.6 251.2 L 826.1 251.2 L 831.7 232.9 L 844 272.7 L 844 272.7 L 875.5 272.7 L 875.5 238.7 L 888.2 272.7 L 895.8 272.7 L 908.5 238.7 L 908.5 272.7 L 925.7 272.7 Z " fill="rgb(31,160,239)"/><path d=" M 968.1 257.8 L 946.6 257.8 L 946.6 216 L 929.4 216 L 929.4 272.7 L 962.6 272.7 L 968.1 257.8 Z " fill="rgb(31,160,239)"/></g></svg>